<?xml version="1.0" encoding="utf-8"?>
<!-- Generator: Adobe Illustrator 17.0.0, SVG Export Plug-In . SVG Version: 6.00 Build 0)  -->
<!DOCTYPE svg PUBLIC "-//W3C//DTD SVG 1.1//EN" "http://www.w3.org/Graphics/SVG/1.1/DTD/svg11.dtd">
<svg version="1.1" id="Layer_1" xmlns="http://www.w3.org/2000/svg" xmlns:xlink="http://www.w3.org/1999/xlink" x="0px" y="0px"
	 width="800px" height="281.09px" viewBox="0 0 800 281.09" enable-background="new 0 0 800 281.09" xml:space="preserve">
<polygon fill="#B2B2B2" points="131.414,20.231 131.414,112.269 116.826,112.269 116.826,90.409 71.272,90.409 71.272,133.554 
	56.649,133.554 56.649,191.367 43.717,191.367 43.717,83.507 0,83.507 0,281.09 800,281.09 800,191.367 734.139,191.367 
	734.139,115.722 715.73,115.722 715.73,51.295 669.699,51.295 669.699,191.367 649.121,191.367 649.121,115.722 612.837,115.722 
	612.837,83.508 589.823,83.508 589.823,92.713 580.076,92.713 580.076,96.738 568.567,96.738 568.567,103.642 562.069,103.642 
	562.069,191.367 554.756,191.367 554.756,83.507 520.777,83.507 520.777,191.367 515.771,191.367 515.771,133.554 472.041,133.554 
	472.041,191.367 469.739,191.367 469.739,39.791 426.01,39.791 426.01,191.367 413.961,191.367 413.961,78.618 370.231,52.157 
	370.231,126.076 358.181,126.076 358.181,109.969 329.616,109.969 329.616,191.367 271.737,191.367 271.737,65.388 226.183,65.388 
	226.183,191.367 176.968,191.367 176.968,20.231 "/>
<g>
	<defs>
		<rect id="SVGID_1_" width="800" height="281.09"/>
	</defs>
	<clipPath id="SVGID_2_">
		<use xlink:href="#SVGID_1_"  overflow="visible"/>
	</clipPath>
	<path clip-path="url(#SVGID_2_)" fill="#808080" d="M776.889,117.937V223.09h-4.313v-71.129h-23.64v71.129h-38.093V110.56h-28.369
		v112.53h-5.992V87.492c0-7.59-5.893-13.78-13.321-14.231l-0.864-36.032l-0.863,36.032c-7.431,0.451-13.321,6.641-13.321,14.231
		V223.09H611.19V121.778h-28.369V223.09h-23.172v-79.628h-32.383v79.628H508.98V84.561h-12.255l-1.038-43.332l-1.038,43.332h-16.304
		v27.859h-20.192l-10.005-17.437l-10.004,17.437h-2.022V95.991h-28.537V223.09h-5.532v-57.063h-13.104v-17.29H367.11v-12.015
		h-23.297v19.928H333.33V57.601h-7.538c-2.352-6.014-7.948-10.37-14.626-10.892l-1.119-46.71l-1.119,46.688
		c-6.873,0.358-12.665,4.769-15.068,10.914h-5.956V223.09h-5.532V121.192h-27.083V223.09h-8.734V121.192h-19.124l-18.766-32.709
		L189.9,121.192h-18.475V223.09h-4.366v-52.138h-29.703v52.138h-6.406v-41.239h-14.852v41.239h-13.396v-70.014h-22.42v70.014h-1.457
		v-45.986H63.973v-6.153H49.124v52.139h-4.369v-78.455H23.789v-23.443H8.66l-1.21-50.6l-1.214,50.6H0V281.09h800V117.937H776.889z"
		/>
	<polygon clip-path="url(#SVGID_2_)" fill="#4D4D4D" points="755.437,138.904 755.437,177.584 741.152,177.584 741.152,246.92 
		713.563,246.92 713.563,204.381 686.865,204.381 686.865,222.133 678.351,222.133 678.351,264.756 645.102,264.756 
		645.102,198.016 599.12,198.016 599.12,182.274 548.24,182.274 548.24,202.371 507.029,202.371 507.029,264.756 462.879,264.756 
		462.879,195.337 432.434,195.337 432.434,264.756 416.216,264.756 416.216,167.2 403.274,167.2 403.274,139.399 372.828,139.399 
		372.828,264.756 360.566,264.756 360.566,173.229 312.881,173.229 312.881,264.756 302.664,264.756 302.664,185.957 
		254.979,185.957 254.979,264.756 227.391,264.756 227.391,181.602 174.938,181.602 174.938,196.675 125.889,196.675 
		125.889,264.756 86.378,264.756 86.378,202.704 33.928,202.704 33.928,264.756 27.794,264.756 27.794,179.258 0.001,179.258 
		0.001,281.09 800,281.09 800,138.904 	"/>
	<polygon clip-path="url(#SVGID_2_)" fill="#333333" points="769.87,218.633 769.87,259.723 751.57,259.723 751.57,238.356 
		709.865,238.356 709.865,253.477 668.16,253.477 668.16,267.283 635.025,267.283 635.025,221.59 605.683,221.59 605.683,249.862 
		591.011,249.862 591.011,267.283 582.603,267.283 582.603,236.055 530.183,236.055 530.183,267.819 503.305,267.819 
		503.305,236.055 481.817,236.055 481.817,267.283 471.815,267.283 471.815,255.854 450.328,255.854 450.328,267.283 
		437.793,267.283 437.793,236.055 398.048,236.055 398.048,267.283 391.715,267.283 391.715,236.055 370.227,236.055 
		370.227,267.283 365.423,267.283 365.423,194.951 343.935,194.951 343.935,267.819 318.346,267.819 318.346,218.633 
		287.684,218.633 287.684,230.617 257.021,230.617 257.021,248.08 237.73,248.08 237.73,221.59 204.849,221.59 204.849,215.071 
		152.84,215.071 152.84,221.59 115.09,221.59 115.09,238.356 100.418,238.356 100.418,228.483 76.615,228.483 76.615,218.633 
		0,218.633 0,281.09 800,281.09 800,218.633 	"/>
</g>
</svg>
