<?xml version="1.0" encoding="utf-8"?>
<!-- Generator: Adobe Illustrator 17.0.0, SVG Export Plug-In . SVG Version: 6.00 Build 0)  -->
<!DOCTYPE svg PUBLIC "-//W3C//DTD SVG 1.1//EN" "http://www.w3.org/Graphics/SVG/1.1/DTD/svg11.dtd">
<svg version="1.1" id="Layer_1" xmlns="http://www.w3.org/2000/svg" xmlns:xlink="http://www.w3.org/1999/xlink" x="0px" y="0px"
	 width="521px" height="188px" viewBox="45.5 294.5 521 188" enable-background="new 45.5 294.5 521 188" xml:space="preserve">
<polygon fill="#001689" points="123.329,302.444 195.484,371.422 345.003,372.257 259.471,347.825 "/>
<rect x="91.109" y="305.167" fill="#001689" width="9.088" height="29.951"/>
<polyline fill="#3B3C3D" points="134.913,314.243 88.171,359.17 65.481,359.17 123.114,302.444 "/>
<g>
	<path fill="#001689" d="M231.72,473.991l2.496-17.436h0.283l7.088,14.307l7.02-14.307h0.279l2.509,17.436h-1.708l-1.723-12.469
		l-6.165,12.469h-0.445l-6.238-12.563l-1.712,12.563H231.72z"/>
	<path fill="#001689" d="M253.909,455.785c0.377,0,0.7,0.135,0.968,0.403s0.401,0.593,0.401,0.972c0,0.372-0.134,0.691-0.401,0.96
		c-0.268,0.27-0.59,0.403-0.968,0.403c-0.37,0-0.688-0.134-0.956-0.403c-0.267-0.269-0.401-0.588-0.401-0.96
		c0-0.379,0.134-0.703,0.401-0.972C253.221,455.92,253.54,455.785,253.909,455.785z M253.085,461.096h1.659v12.896h-1.659V461.096z"
		/>
	<path fill="#001689" d="M260.958,470.743l1.482-0.889c1.043,1.92,2.248,2.88,3.615,2.88c0.585,0,1.134-0.136,1.647-0.408
		s0.905-0.639,1.174-1.097c0.269-0.458,0.403-0.944,0.403-1.458c0-0.585-0.198-1.157-0.593-1.719
		c-0.545-0.774-1.541-1.706-2.987-2.797c-1.454-1.099-2.358-1.893-2.714-2.383c-0.616-0.821-0.924-1.71-0.924-2.667
		c0-0.758,0.182-1.449,0.545-2.074c0.363-0.624,0.875-1.115,1.535-1.476c0.66-0.359,1.377-0.539,2.151-0.539
		c0.822,0,1.59,0.204,2.305,0.61c0.715,0.407,1.472,1.156,2.27,2.246l-1.422,1.079c-0.656-0.869-1.215-1.442-1.677-1.719
		s-0.966-0.415-1.511-0.415c-0.704,0-1.278,0.213-1.725,0.64s-0.669,0.953-0.669,1.577c0,0.379,0.079,0.746,0.237,1.102
		s0.446,0.743,0.865,1.162c0.229,0.221,0.98,0.802,2.252,1.742c1.509,1.114,2.544,2.105,3.105,2.975s0.842,1.743,0.842,2.62
		c0,1.264-0.48,2.362-1.44,3.295s-2.127,1.398-3.502,1.398c-1.059,0-2.019-0.282-2.88-0.848
		C262.479,473.018,261.685,472.071,260.958,470.743z"/>
	<path fill="#001689" d="M279.467,460.764c1.987,0,3.633,0.719,4.939,2.157c1.188,1.312,1.781,2.864,1.781,4.658
		c0,1.802-0.627,3.376-1.882,4.723c-1.254,1.348-2.868,2.021-4.838,2.021c-1.979,0-3.596-0.674-4.85-2.021
		c-1.255-1.347-1.882-2.921-1.882-4.723c0-1.786,0.594-3.335,1.781-4.646C275.822,461.486,277.472,460.764,279.467,460.764z
		 M279.461,462.388c-1.38,0-2.565,0.51-3.557,1.528c-0.991,1.02-1.487,2.252-1.487,3.698c0,0.933,0.226,1.802,0.678,2.607
		c0.452,0.807,1.063,1.429,1.832,1.867s1.614,0.658,2.534,0.658c0.919,0,1.764-0.22,2.534-0.658
		c0.769-0.438,1.379-1.061,1.832-1.867c0.452-0.806,0.678-1.675,0.678-2.607c0-1.446-0.498-2.679-1.493-3.698
		C282.016,462.897,280.833,462.388,279.461,462.388z"/>
	<path fill="#001689" d="M287.794,456.117h1.659v17.874h-1.659V456.117z"/>
	<path fill="#001689" d="M291.476,461.096h1.659v6.021c0,1.47,0.079,2.481,0.238,3.035c0.237,0.79,0.69,1.414,1.359,1.872
		c0.668,0.459,1.466,0.688,2.392,0.688s1.711-0.223,2.356-0.67c0.645-0.446,1.09-1.032,1.335-1.76
		c0.166-0.498,0.25-1.553,0.25-3.165v-6.021h1.695v6.329c0,1.778-0.208,3.117-0.622,4.019c-0.415,0.9-1.04,1.605-1.873,2.115
		s-1.878,0.765-3.135,0.765s-2.306-0.255-3.147-0.765c-0.842-0.51-1.47-1.221-1.885-2.134c-0.415-0.912-0.622-2.285-0.622-4.118
		L291.476,461.096L291.476,461.096z"/>
	<path fill="#001689" d="M317.748,463.774l-1.314,0.817c-1.137-1.509-2.688-2.264-4.652-2.264c-1.572,0-2.875,0.505-3.914,1.516
		c-1.037,1.01-1.556,2.237-1.556,3.682c0,0.939,0.239,1.823,0.716,2.652s1.133,1.472,1.965,1.93s1.766,0.687,2.801,0.687
		c1.893,0,3.439-0.754,4.641-2.264l1.314,0.865c-0.615,0.928-1.443,1.648-2.482,2.16s-2.223,0.768-3.551,0.768
		c-2.037,0-3.729-0.648-5.072-1.944s-2.015-2.872-2.015-4.729c0-1.249,0.314-2.408,0.942-3.479c0.628-1.07,1.491-1.906,2.59-2.507
		c1.098-0.6,2.326-0.9,3.686-0.9c0.854,0,1.678,0.13,2.473,0.391c0.793,0.261,1.467,0.601,2.02,1.02
		S317.361,463.126,317.748,463.774z"/>
	<path fill="#001689" d="M320.298,455.785c0.378,0,0.7,0.135,0.968,0.403s0.401,0.593,0.401,0.972c0,0.372-0.134,0.691-0.401,0.96
		c-0.268,0.27-0.59,0.403-0.968,0.403c-0.37,0-0.688-0.134-0.956-0.403s-0.401-0.588-0.401-0.96c0-0.379,0.134-0.703,0.401-0.972
		S319.928,455.785,320.298,455.785z M319.475,461.096h1.659v12.896h-1.659V461.096z"/>
	<path fill="#001689" d="M329.474,460.764c1.987,0,3.633,0.719,4.939,2.157c1.188,1.312,1.781,2.864,1.781,4.658
		c0,1.802-0.628,3.376-1.882,4.723c-1.255,1.348-2.868,2.021-4.839,2.021c-1.979,0-3.596-0.674-4.851-2.021
		s-1.882-2.921-1.882-4.723c0-1.786,0.594-3.335,1.781-4.646C325.828,461.486,327.479,460.764,329.474,460.764z M329.468,462.388
		c-1.38,0-2.565,0.51-3.557,1.528c-0.991,1.02-1.486,2.252-1.486,3.698c0,0.933,0.226,1.802,0.678,2.607
		c0.452,0.807,1.063,1.429,1.832,1.867c0.769,0.438,1.613,0.658,2.533,0.658s1.765-0.22,2.533-0.658
		c0.77-0.438,1.38-1.061,1.832-1.867s0.678-1.675,0.678-2.607c0-1.446-0.497-2.679-1.492-3.698
		C332.022,462.897,330.84,462.388,329.468,462.388z M330.291,455.051h2.549l-3.496,3.65h-1.636L330.291,455.051z"/>
	<path fill="#001689" d="M338.05,461.096h1.66v2.312c0.663-0.886,1.398-1.547,2.204-1.985c0.806-0.439,1.684-0.658,2.632-0.658
		c0.964,0,1.819,0.245,2.565,0.734c0.747,0.49,1.298,1.15,1.653,1.979c0.355,0.83,0.534,2.122,0.534,3.876v6.638h-1.66v-6.151
		c0-1.485-0.062-2.478-0.185-2.976c-0.192-0.853-0.561-1.495-1.106-1.926c-0.545-0.431-1.256-0.646-2.134-0.646
		c-1.003,0-1.902,0.331-2.696,0.995c-0.795,0.664-1.318,1.485-1.571,2.466c-0.158,0.64-0.236,1.81-0.236,3.508v4.729h-1.66V461.096z
		"/>
	<path fill="#001689" d="M357.171,456.556h1.742v17.436h-1.742V456.556z"/>
	<path fill="#001689" d="M361.421,461.096h1.66v2.312c0.663-0.886,1.398-1.547,2.204-1.985c0.806-0.439,1.684-0.658,2.632-0.658
		c0.964,0,1.819,0.245,2.565,0.734c0.747,0.49,1.298,1.15,1.653,1.979c0.355,0.83,0.534,2.122,0.534,3.876v6.638h-1.66v-6.151
		c0-1.485-0.062-2.478-0.185-2.976c-0.192-0.853-0.561-1.495-1.106-1.926c-0.545-0.431-1.256-0.646-2.134-0.646
		c-1.003,0-1.902,0.331-2.696,0.995c-0.795,0.664-1.318,1.485-1.571,2.466c-0.158,0.64-0.236,1.81-0.236,3.508v4.729h-1.66V461.096z
		"/>
	<path fill="#001689" d="M374.999,461.096h1.659v2.229c0.578-0.822,1.171-1.423,1.78-1.802c0.839-0.506,1.721-0.759,2.646-0.759
		c0.625,0,1.218,0.122,1.779,0.367c0.563,0.245,1.021,0.571,1.377,0.979c0.356,0.406,0.664,0.989,0.926,1.748
		c0.552-1.012,1.241-1.78,2.069-2.306c0.827-0.525,1.719-0.788,2.672-0.788c0.891,0,1.678,0.226,2.359,0.676s1.188,1.078,1.52,1.885
		c0.331,0.806,0.496,2.015,0.496,3.627v7.04h-1.694v-7.04c0-1.383-0.099-2.333-0.296-2.851c-0.196-0.518-0.533-0.935-1.01-1.251
		c-0.477-0.315-1.046-0.474-1.707-0.474c-0.804,0-1.538,0.236-2.203,0.711c-0.666,0.474-1.152,1.106-1.459,1.896
		c-0.308,0.79-0.461,2.109-0.461,3.959v5.049h-1.659v-6.602c0-1.557-0.097-2.614-0.29-3.171c-0.194-0.558-0.532-1.004-1.014-1.34
		c-0.482-0.335-1.055-0.503-1.719-0.503c-0.767,0-1.483,0.23-2.151,0.693c-0.668,0.462-1.161,1.084-1.481,1.866
		s-0.48,1.979-0.48,3.592v5.464h-1.659L374.999,461.096L374.999,461.096z"/>
	<path fill="#001689" d="M402.671,460.764c1.987,0,3.633,0.719,4.939,2.157c1.188,1.312,1.781,2.864,1.781,4.658
		c0,1.802-0.628,3.376-1.882,4.723c-1.255,1.348-2.868,2.021-4.839,2.021c-1.979,0-3.596-0.674-4.851-2.021
		s-1.882-2.921-1.882-4.723c0-1.786,0.594-3.335,1.781-4.646C399.025,461.486,400.676,460.764,402.671,460.764z M402.665,462.388
		c-1.38,0-2.565,0.51-3.557,1.528c-0.991,1.02-1.486,2.252-1.486,3.698c0,0.933,0.226,1.802,0.678,2.607
		c0.452,0.807,1.063,1.429,1.832,1.867c0.769,0.438,1.613,0.658,2.533,0.658s1.765-0.22,2.533-0.658
		c0.77-0.438,1.38-1.061,1.832-1.867s0.678-1.675,0.678-2.607c0-1.446-0.497-2.679-1.492-3.698
		C405.22,462.897,404.037,462.388,402.665,462.388z"/>
	<path fill="#001689" d="M411.354,473.991v-17.874h1.659v7.194c0.694-0.853,1.472-1.491,2.332-1.914
		c0.86-0.422,1.804-0.634,2.83-0.634c1.824,0,3.381,0.662,4.671,1.985c1.291,1.323,1.937,2.93,1.937,4.818
		c0,1.864-0.651,3.457-1.954,4.776c-1.302,1.319-2.869,1.979-4.7,1.979c-1.05,0-2.001-0.226-2.854-0.676s-1.606-1.126-2.262-2.026
		v2.37h-1.659V473.991z M417.991,472.723c0.923,0,1.774-0.227,2.555-0.682c0.78-0.454,1.401-1.092,1.862-1.914
		c0.461-0.821,0.692-1.69,0.692-2.607c0-0.916-0.233-1.79-0.698-2.619c-0.465-0.83-1.09-1.476-1.874-1.938
		c-0.785-0.462-1.622-0.693-2.513-0.693c-0.907,0-1.769,0.231-2.584,0.693c-0.816,0.463-1.443,1.085-1.88,1.867
		c-0.438,0.782-0.657,1.663-0.657,2.644c0,1.493,0.491,2.741,1.473,3.745S416.557,472.723,417.991,472.723z"/>
	<path fill="#001689" d="M427.167,455.785c0.378,0,0.7,0.135,0.968,0.403s0.401,0.593,0.401,0.972c0,0.372-0.134,0.691-0.401,0.96
		c-0.268,0.27-0.59,0.403-0.968,0.403c-0.37,0-0.688-0.134-0.956-0.403s-0.401-0.588-0.401-0.96c0-0.379,0.134-0.703,0.401-0.972
		S426.797,455.785,427.167,455.785z M426.344,461.096h1.659v12.896h-1.659V461.096z"/>
	<path fill="#001689" d="M429.989,456.117h1.659v17.874h-1.659V456.117z"/>
	<path fill="#001689" d="M434.458,455.785c0.378,0,0.7,0.135,0.968,0.403s0.401,0.593,0.401,0.972c0,0.372-0.134,0.691-0.401,0.96
		c-0.268,0.27-0.59,0.403-0.968,0.403c-0.37,0-0.688-0.134-0.956-0.403s-0.401-0.588-0.401-0.96c0-0.379,0.134-0.703,0.401-0.972
		S434.088,455.785,434.458,455.785z M433.635,461.096h1.659v12.896h-1.659V461.096z"/>
	<path fill="#001689" d="M450.378,461.096v12.896h-1.636v-2.217c-0.695,0.846-1.476,1.481-2.341,1.908s-1.812,0.641-2.839,0.641
		c-1.825,0-3.384-0.662-4.676-1.985s-1.938-2.934-1.938-4.83c0-1.856,0.651-3.445,1.955-4.765s2.872-1.979,4.706-1.979
		c1.059,0,2.017,0.226,2.874,0.676s1.61,1.126,2.258,2.026v-2.37L450.378,461.096L450.378,461.096z M443.746,462.363
		c-0.923,0-1.775,0.228-2.557,0.682c-0.782,0.453-1.403,1.091-1.865,1.912c-0.462,0.82-0.692,1.688-0.692,2.604
		c0,0.907,0.233,1.775,0.698,2.604c0.466,0.828,1.092,1.474,1.877,1.936s1.628,0.692,2.527,0.692c0.908,0,1.769-0.229,2.581-0.687
		s1.438-1.077,1.877-1.858c0.438-0.781,0.656-1.662,0.656-2.641c0-1.491-0.491-2.738-1.474-3.741
		C446.393,462.865,445.183,462.363,443.746,462.363z"/>
	<path fill="#001689" d="M452.27,461.096h1.695v1.885c0.505-0.743,1.039-1.298,1.6-1.666c0.562-0.367,1.146-0.551,1.755-0.551
		c0.458,0,0.948,0.146,1.47,0.438l-0.865,1.398c-0.349-0.149-0.641-0.225-0.878-0.225c-0.553,0-1.086,0.227-1.6,0.681
		c-0.514,0.455-0.905,1.16-1.174,2.116c-0.205,0.734-0.308,2.221-0.308,4.457v4.361h-1.695V461.096z"/>
	<path fill="#001689" d="M459.561,455.785c0.378,0,0.7,0.135,0.968,0.403s0.401,0.593,0.401,0.972c0,0.372-0.134,0.691-0.401,0.96
		c-0.268,0.27-0.59,0.403-0.968,0.403c-0.37,0-0.688-0.134-0.956-0.403s-0.401-0.588-0.401-0.96c0-0.379,0.134-0.703,0.401-0.972
		S459.19,455.785,459.561,455.785z M458.737,461.096h1.659v12.896h-1.659V461.096z"/>
	<path fill="#001689" d="M475.479,461.096v12.896h-1.636v-2.217c-0.695,0.846-1.476,1.481-2.341,1.908s-1.812,0.641-2.839,0.641
		c-1.825,0-3.384-0.662-4.676-1.985s-1.938-2.934-1.938-4.83c0-1.856,0.651-3.445,1.955-4.765s2.872-1.979,4.706-1.979
		c1.059,0,2.017,0.226,2.874,0.676s1.61,1.126,2.258,2.026v-2.37L475.479,461.096L475.479,461.096z M468.848,462.363
		c-0.923,0-1.775,0.228-2.557,0.682c-0.782,0.453-1.403,1.091-1.865,1.912c-0.462,0.82-0.692,1.688-0.692,2.604
		c0,0.907,0.233,1.775,0.698,2.604c0.466,0.828,1.092,1.474,1.877,1.936s1.628,0.692,2.527,0.692c0.908,0,1.769-0.229,2.581-0.687
		s1.438-1.077,1.877-1.858c0.438-0.781,0.656-1.662,0.656-2.641c0-1.491-0.491-2.738-1.474-3.741
		C471.494,462.865,470.284,462.363,468.848,462.363z"/>
</g>
<path fill="#00358E" d="M70.54,417.754v5.703c0,4.627,1.481,8.716,7.413,8.716c4.344,0,6.25-3.981,6.25-8.07
	c0-6.778-5.507-9.36-10.38-12.374c-5.72-3.335-10.591-6.455-14.087-10.544c-3.39-4.089-5.402-9.039-5.402-16.14
	c0-15.171,9.003-22.918,23.409-22.918c16.207,0,24.469,10.976,23.622,26.147H84.203c-0.211-4.735,0-11.19-6.143-11.622
	c-3.812-0.321-6.038,1.83-6.461,5.382c-0.529,4.842,1.906,7.316,5.614,9.898c6.99,4.519,13.029,7.318,17.372,11.405
	c4.341,4.089,6.884,9.469,6.884,19.261c0,15.494-8.474,24.102-23.938,24.102c-17.054,0-24.256-9.683-24.256-20.336v-8.608H70.54
	V417.754z"/>
<path fill="#00358E" d="M147.303,424.091c0,14.866-5.19,22.607-20.848,22.607s-21.113-7.741-21.113-22.607V397.26
	c0-12.668,7.566-19.705,21.113-19.705s20.848,7.038,20.848,19.705V424.091z M131.82,398.315c0-4.045-0.353-8.885-5.455-8.885
	c-4.926,0-5.541,4.839-5.541,8.885v27.095c0,3.783,0.615,9.413,5.63,9.413c5.013,0,5.366-5.63,5.366-9.413V398.315z"/>
<path fill="#00358E" d="M151.791,445.115v-65.977h15.483v52.782h18.913v13.196h-34.396V445.115z"/>
<path fill="#00358E" d="M189.09,379.138h15.483v49.791c0,3.166,0.968,5.894,5.366,5.894c4.047,0,5.279-3.519,5.279-6.334v-49.351
	H230.7v47.768c0,11.171-5.015,19.792-20.849,19.792c-13.109,0-20.762-6.245-20.762-19.792L189.09,379.138L189.09,379.138z"/>
<path fill="#232222" stroke="#FFFFFF" stroke-width="2" stroke-miterlimit="10" d="M235.979,445.115v-80.119h23.758
	c13.858,0,24.695,4.594,24.695,20.726c0,7.05-2.501,13.353-8.857,16.877v0.215c8.336,4.912,10.106,9.185,10.106,19.12
	c0,16.237-8.959,23.182-23.861,23.182h-25.841V445.115z M254.318,396.511c8.023-0.534,11.775,0,11.775-9.508
	c0-7.904-5.314-7.584-11.775-7.584V396.511z M254.318,430.695c9.169-0.215,13.025,0.426,13.025-10.363
	c0-9.293-5.209-9.08-13.025-9.401V430.695z"/>
<path fill="#232222" d="M289.619,445.907V379.93h15.483v65.977H289.619z"/>
<path fill="#232222" d="M311.437,445.907V379.93h35.45v13.196H326.92v12.139h19.352v13.196H326.92v14.251h21.024v13.196h-36.507
	V445.907z"/>
<path fill="#232222" d="M366.419,408.959l-0.176,0.177l1.408,36.771h-14.69V379.93h15.922l11.964,36.859h0.264l-1.496-36.859h14.69
	v65.977h-15.834L366.419,408.959z"/>
<path fill="#232222" d="M399.938,445.907V379.93h35.45v13.196h-19.967v12.139h19.352v13.196h-19.352v14.251h21.024v13.196h-36.507
	V445.907z"/>
<path fill="#232222" d="M453.425,423.826v4.662c0,3.783,1.23,7.126,6.156,7.126c3.607,0,5.19-3.255,5.19-6.598
	c0-5.541-4.574-7.653-8.621-10.117c-4.751-2.726-8.796-5.277-11.7-8.621c-2.815-3.343-4.487-7.39-4.487-13.196
	c0-12.403,7.477-18.737,19.441-18.737c13.46,0,20.322,8.973,19.618,21.377H464.77c-0.176-3.872,0-9.149-5.102-9.502
	c-3.166-0.262-5.015,1.496-5.366,4.4c-0.44,3.958,1.583,5.981,4.662,8.092c5.806,3.694,10.82,5.983,14.428,9.324
	c3.606,3.343,5.717,7.741,5.717,15.747c0,12.668-7.038,19.705-19.881,19.705c-14.164,0-20.145-7.917-20.145-16.626v-7.038h14.342
	V423.826z"/>
<path fill="#00358E" d="M484.627,445.393v-32.428h19.357v6.485h-11.128v5.751h10.24v6.485h-10.24v13.707L484.627,445.393
	L484.627,445.393z"/>
<path fill="#00358E" d="M525.073,443.534c-2.244,1.773-4.816,2.638-7.808,2.638c-6.266,0-10.521-3.718-10.521-9.642
	c0-4.498,2.384-8,6.499-10.335c-1.777-2.032-2.853-4.539-2.853-7.22c0-4.539,4.864-6.788,9.119-6.788
	c4.629,0,8.603,2.378,8.603,7.048c0,3.675-2.525,6.356-5.938,7.999c1.263,1.817,2.618,3.632,3.788,5.491h0.093
	c0.374-1.6,0.655-3.113,0.936-4.584h6.032c-0.095,3.589-1.404,7.091-3.134,10.247l4.817,7.005h-8.37L525.073,443.534z
	 M516.423,431.082c-1.637,1.643-2.385,2.767-2.385,5.059c0,2.291,1.871,4.193,4.348,4.193c1.263-0.043,2.478-0.735,3.508-1.426
	L516.423,431.082z M516.891,418.932c0,1.384,0.888,2.984,1.963,3.892c1.216-0.563,2.478-2.378,2.478-3.632
	c0-1.514-0.7-2.249-2.384-2.249C517.732,416.943,516.891,417.85,516.891,418.932z"/>
<path fill="#00358E" d="M550.415,424.294v-2.076c0-2.767-1.075-4.193-2.618-4.193c-2.572-0.043-3.179,1.254-3.179,3.372
	l-0.048,16.042c0,1.815,0.795,2.896,2.946,2.896c2.806,0,3.039-2.681,3.039-4.67v-2.94h8.23v3.978c0,5.578-3.46,9.469-11.877,9.469
	c-7.575,0-10.521-3.718-10.521-10.334V422.52c0-7.048,3.507-10.334,11.035-10.334c7.013,0,11.221,2.767,11.221,9.383v2.724h-8.228
	V424.294z"/>
</svg>
